<svg width="158" height="32" viewBox="0 0 158 32" fill="none" xmlns="http://www.w3.org/2000/svg">
<path d="M50.9832 14.8051H57.8391V14.8384C57.8339 17.2723 57.1091 19.2078 56.1616 21.5364C53.9365 26.0708 49.9865 30.9315 42.0145 30.9315C34.5866 30.9315 29.0783 25.3899 29.0783 18.4006C29.0783 18.4006 29.0783 18.3831 29.0783 18.3673L31.9667 14.8051H38.8226V14.8384C38.8226 18.3076 41.2986 21.3065 44.9029 21.3574C45.9575 21.3381 46.9156 21.0661 47.7439 20.6046C47.9738 19.9097 48.0948 19.1657 48.0948 18.4006V18.3673L50.9832 14.8051ZM57.8058 5.08539L52.2642 1.88468C51.5009 1.43897 50.9271 1.56005 50.4287 1.96189L48.3282 3.91145C47.8316 4.47473 47.7685 4.78532 47.7685 5.28543V11.6693C47.7685 13.0679 48.7617 13.6575 49.9742 12.9485L55.1982 9.92857C55.4316 9.79345 55.6492 9.63376 55.8475 9.45302L57.9672 7.52452C59.0131 6.82788 58.9604 5.74343 57.8058 5.08539ZM36.0659 12.2835L39.0771 9.47583C41.0003 7.68245 41.0354 4.58352 39.242 2.66029C37.4486 0.737055 34.3392 0.537011 32.4142 2.33215L29.403 5.13979C27.4797 6.93317 27.4727 10.0637 29.2679 11.9869C31.063 13.9101 34.1426 14.0769 36.0659 12.2835Z" fill="#E61515"/>
<path d="M57.8374 14.8244C57.8198 21.8137 52.3134 27.3552 44.9012 27.3552C37.4732 27.3552 31.965 21.8137 31.965 14.8244C31.965 14.8244 31.965 14.8068 31.965 14.791H38.8209V14.8244C38.8209 18.2936 41.2969 21.2925 44.9012 21.3434C48.5055 21.2767 50.9815 18.2778 50.9815 14.8244V14.791H57.8374V14.8244ZM35.6974 1.06694C33.0003 1.06694 30.8121 3.25339 30.8121 5.95224C30.8121 8.64933 32.9985 10.8375 35.6974 10.8375C38.3945 10.8375 40.5827 8.65108 40.5827 5.95224C40.5809 3.25515 38.3945 1.06694 35.6974 1.06694ZM57.804 5.07134L52.2625 1.87063C51.0499 1.16345 50.0567 1.73551 50.0567 3.14986V9.53373C50.0567 10.9323 51.0499 11.5219 52.2625 10.813L57.804 7.61225C59.0166 6.92438 59.0166 5.76097 57.804 5.07134Z" fill="#AFE514"/>
<path d="M19.5394 2.49535L16.5843 6.22074V11.7149L9.41432 2.49535H3.04449L0.0894524 6.22074V30.8402H6.84534L9.80038 27.1149V21.1223L17.3564 30.8227H23.3402L26.2953 27.0973V2.49535H19.5394Z" fill="#E61515"/>
<path d="M63.1105 2.43919L60.0607 6.30321V12.2694H67.4483V30.9227H74.2744L77.3242 27.0587V12.287H81.662L84.7118 8.42297V2.43919H63.1105Z" fill="#E61515"/>
<path d="M133.547 17.3092C133.547 12.1238 129.318 7.4789 123.65 7.4789C121.009 7.4789 118.688 8.48614 116.963 10.0918C116.575 10.3743 113.69 12.5397 111.704 15.9773C110.965 17.2565 110.691 19.3675 110.691 20.8959C110.691 26.3269 114.885 30.6963 120.536 30.6963C122.992 30.6963 125.747 29.3873 127.721 27.7325C130.062 25.7724 131.485 23.4175 131.72 23.0157C132.879 21.3995 133.547 19.4237 133.547 17.3092ZM123.677 21.31C121.638 21.31 119.985 19.5132 119.985 17.2969C119.985 17.1688 119.99 17.0424 120.002 16.9161C120.185 16.8863 120.372 16.8705 120.564 16.8705C122.603 16.8705 124.256 18.6674 124.256 20.8836C124.256 21.0117 124.25 21.1381 124.238 21.2644C124.056 21.2943 123.868 21.31 123.677 21.31Z" fill="#E61515"/>
<path d="M103.844 11.9325L105.637 9.39337C105.662 9.41092 105.688 9.43022 105.711 9.44777L109.115 4.62214C106.448 2.48131 103.167 1.35826 98.9904 1.35826C96.7495 1.35826 94.8579 1.93909 93.2751 2.63924C93.0996 2.71645 90.0288 4.34663 88.1336 6.29443C86.9316 7.5298 85.9577 9.32845 85.9577 11.9817C85.9577 15.486 88.1073 17.7356 91.1799 19.2061L85.3593 26.1603C88.3951 28.8626 93.4488 30.9824 97.8077 30.6946C105.004 30.2191 108.275 26.692 109.277 21.8962C110.746 18.4024 109.044 13.9839 103.844 11.9325Z" fill="#E61515"/>
<path d="M3.04449 2.49535H9.41432L19.5394 15.5158L19.5394 2.49535H26.2953V27.0973H20.3115L9.8004 13.6031L9.80038 27.1149H3.04451L3.04449 2.49535Z" fill="#AFE514"/>
<path d="M19.4973 2.40761L16.4966 6.19091V11.4605L9.45649 2.40761H3.00066L0 6.19091V30.928H6.88574L9.8864 27.1447V21.3767L17.3144 30.9104H23.3841L26.3848 27.1271V2.40761H19.4973ZM16.6721 6.25056L19.4517 2.74628V15.2596L16.6721 11.6851V6.25056ZM9.37225 2.58309L19.6272 15.772V2.58309H26.2076V27.0096H20.3536L9.71268 13.3469V27.0271H3.13227V2.58309H9.37225ZM6.80326 30.7525H0.177234V6.25056L2.95679 2.74628V27.2008H9.61968L6.80326 30.7525ZM23.2982 30.735H17.4004L9.88816 21.0925V13.8593L20.2431 27.1517L20.2694 27.185H26.1146L23.2982 30.735Z" fill="black"/>
<path d="M155.924 9.5741C152.855 6.78928 147.177 6.48395 144.216 9.57762V7.49646H137.864L134.57 11.5816V30.8104H141.221L144.515 27.0113C144.515 27.0113 144.515 17.5039 144.515 17.1179C144.657 17.0144 144.822 16.9564 145.011 16.9547C147.099 16.9547 148.135 18.2708 148.135 20.9029V30.8104H154.619L157.912 27.0113C157.912 24.5897 157.912 20.3993 157.912 16.523C157.914 12.4537 157.34 10.9955 155.924 9.5741Z" fill="#E61515"/>
<path d="M155.924 9.5741C157.34 10.9955 157.912 12.4537 157.912 16.5213C157.912 20.3976 157.912 24.5862 157.912 27.0096H151.428V17.1021C151.428 14.4699 150.393 13.1539 148.305 13.1539C145.738 13.1767 144.486 14.4103 144.515 17.1021V27.0096H137.864V7.49646H144.216V9.57762C147.177 6.48395 152.855 6.78928 155.924 9.5741Z" fill="#AFE514"/>
<path d="M155.986 9.51093L155.982 9.50742C154.468 8.13343 152.297 7.32096 150.03 7.28236C147.775 7.24024 145.701 7.99831 144.304 9.36353V7.40695H137.824L134.482 11.5465V30.8981H141.261L144.602 27.0429V17.1618C144.725 17.081 144.86 17.0424 145.011 17.0407C147.054 17.0407 148.047 18.3041 148.047 20.9012V30.8981H154.659L158 27.0429V16.5213C158.002 12.28 157.351 10.8814 155.986 9.51093ZM144.128 7.58419V9.79696L144.279 9.63903C147.312 6.47166 152.995 7.03845 155.864 9.63903C157.193 10.9727 157.826 12.3449 157.826 16.5213V26.9201H151.518V17.1021C151.518 14.4225 150.437 13.0643 148.305 13.0643C146.973 13.0766 146.013 13.4048 145.371 14.0698C144.729 14.7349 144.42 15.7176 144.429 17.0705V26.9201H137.953V7.58419H144.128ZM141.182 30.7191H134.66V11.6132L137.778 7.73158V27.0991H144.323L141.182 30.7191ZM154.58 30.7191H148.224V20.9012C148.224 18.2216 147.143 16.8634 145.013 16.8634C144.867 16.8652 144.732 16.8968 144.608 16.9582C144.616 15.7123 144.906 14.8033 145.497 14.1927C146.106 13.5645 147.026 13.2521 148.308 13.2416C150.351 13.2416 151.344 14.5033 151.344 17.1021V27.0991H157.723L154.58 30.7191Z" fill="black"/>
<path d="M70.4981 8.40542H63.1105L63.1105 2.43919H84.7118V8.42297H77.3242L77.3242 27.0587H70.4981V8.40542Z" fill="#AFE514"/>
<path d="M63.0684 2.35145L59.9729 6.27162V12.3554H67.3605V31.0087H74.3165L77.4119 27.0885V12.373H81.7041L84.7995 8.45281V2.35145H63.0684ZM84.624 2.52692V8.33523H77.2364V26.971H70.5858V8.31769H63.1982V2.52692H84.624ZM74.2305 30.835H67.5343V12.1817H60.1467V6.33303L63.021 2.69187V8.49316H70.4086V27.1464H77.1417L74.2305 30.835ZM81.6181 12.1992H77.4101V8.51246H84.5293L81.6181 12.1992Z" fill="black"/>
<path d="M123.666 21.2416C121.627 21.2416 119.974 19.4447 119.974 17.2284C119.974 15.0122 121.627 13.2153 123.666 13.2153C125.705 13.2153 127.358 15.0122 127.358 17.2284C127.358 19.4447 125.705 21.2416 123.666 21.2416ZM123.64 7.41397C117.989 7.41397 113.795 12.0273 113.795 17.2442C113.795 22.6753 117.989 27.0446 123.64 27.0446C129.29 27.0446 133.537 22.5752 133.537 17.2442C133.537 12.0589 129.308 7.41397 123.64 7.41397Z" fill="#AFE514"/>
<path d="M133.624 17.3302C133.624 11.8623 129.144 7.41397 123.64 7.41397C121.062 7.41397 118.712 8.40015 116.945 10.0128C116.886 10.0549 113.727 12.308 111.616 15.958C110.861 17.2635 110.593 19.3763 110.593 20.9187C110.593 26.4638 114.955 30.8069 120.525 30.8069C122.794 30.8069 125.57 29.6628 127.769 27.822C129.845 26.0848 131.215 24.0142 131.663 23.2877C132.898 21.6399 133.624 19.5851 133.624 17.3302ZM133.449 17.3302C133.449 22.777 129.141 27.0446 123.64 27.0446C120.953 27.0446 118.474 26.0374 116.661 24.2072C114.869 22.398 113.883 19.9571 113.883 17.3302C113.883 11.9571 118.26 7.5877 123.64 7.5877C129.048 7.58595 133.449 11.9571 133.449 17.3302ZM127.655 27.6887C125.487 29.5049 122.755 30.6314 120.525 30.6314C117.838 30.6314 115.359 29.6242 113.546 27.7939C111.755 25.9848 110.768 23.5439 110.768 20.917C110.768 19.4658 111.03 17.3197 111.769 16.0422C113.122 13.7013 114.908 11.9431 116.017 10.9814C114.576 12.7029 113.708 14.9174 113.708 17.3302C113.708 22.8753 118.07 27.2184 123.64 27.2184C126.439 27.2184 128.934 26.1322 130.731 24.3546C130.043 25.2969 128.999 26.5621 127.655 27.6887ZM123.666 21.4153C125.751 21.4153 127.446 19.5763 127.446 17.3144C127.446 15.0525 125.749 13.2135 123.666 13.2135C121.583 13.2135 119.886 15.0525 119.886 17.3144C119.886 19.5763 121.581 21.4153 123.666 21.4153ZM123.666 13.389C125.654 13.389 127.27 15.1508 127.27 17.3162C127.27 19.2377 125.996 20.8415 124.319 21.1767C124.324 21.0854 124.331 20.9959 124.331 20.9029C124.331 18.641 122.634 16.802 120.551 16.802C120.395 16.802 120.241 16.8143 120.088 16.8354C120.306 14.8963 121.827 13.389 123.666 13.389ZM120.072 17.0126C120.228 16.9898 120.388 16.9758 120.551 16.9758C122.539 16.9758 124.156 18.7375 124.156 20.9029C124.156 21.0047 124.15 21.1065 124.143 21.2065C123.987 21.2293 123.827 21.2416 123.666 21.2416C121.678 21.2416 120.062 19.4798 120.062 17.3144C120.06 17.2144 120.065 17.1126 120.072 17.0126Z" fill="black"/>
<path d="M88.2126 22.756L92.017 18.2094C93.977 20.2063 102.279 23.1719 102.809 19.4026C102.809 18.3848 102.002 17.8233 98.65 17.0512C93.4208 15.858 89.3672 14.3839 89.3672 9.24245C89.3672 4.66249 92.9996 1.36351 98.8957 1.36351C103.072 1.36351 106.353 2.48656 109.021 4.62739L105.616 9.45302C103.395 7.75791 96.8601 5.27841 96.2635 8.68092C96.2635 9.80398 97.0672 10.4971 100.528 11.0674C113.411 13.1907 112.302 27.0043 99.7555 26.8253C95.3861 26.8428 91.2484 25.4583 88.2126 22.756Z" fill="#AFE514"/>
<path d="M107.736 14.4612C106.759 13.4083 105.481 12.559 103.967 11.9343L105.632 9.57586L105.634 9.57761L109.138 4.60984L109.073 4.55896C106.32 2.3497 102.991 1.27577 98.8939 1.27577C96.6162 1.27577 94.6351 1.77939 93.0716 2.6831C92.9716 2.71995 92.875 2.7568 92.782 2.79716C92.1872 3.04809 90.0481 4.22028 88.0845 6.24003C86.6245 7.74211 85.884 9.67588 85.884 11.9887C85.884 15.1227 87.6195 17.5461 91.0483 19.2324L88.0915 22.7665L85.2523 26.176C88.3565 28.9398 93.1295 30.8139 97.0426 30.8139C97.3076 30.8139 97.5708 30.8051 97.8288 30.7893C104.616 30.3401 108.528 27.1517 109.495 21.3065C109.628 20.8696 109.714 20.4256 109.752 19.9834C109.928 18.0076 109.212 16.0492 107.736 14.4612ZM100.542 10.9814C97.0374 10.4041 96.2635 9.69693 96.3495 8.69671C96.4091 7.99831 96.8566 7.52979 97.4954 7.27886C99.5695 6.4664 103.795 8.21591 105.494 9.47233L103.802 11.8676C102.809 11.4728 101.719 11.1745 100.542 10.9814ZM86.0595 11.9869C86.0595 9.7215 86.7842 7.8281 88.2108 6.36111C89.6322 4.89938 91.1396 3.89038 92.0784 3.35517C90.3025 4.75549 89.2795 6.79103 89.2795 9.24245C89.2795 14.5629 93.7033 16.0124 98.6307 17.1372C102.109 17.9391 102.784 18.5077 102.723 19.3903C102.668 20.1642 102.161 20.6801 101.375 20.938C98.9167 21.747 93.5682 19.6641 92.0117 18.0795L91.1641 19.092C87.7739 17.4338 86.0595 15.0578 86.0595 11.9869ZM97.8165 30.6121C93.8331 30.8736 88.7794 29.0451 85.4962 26.1567L88.2249 22.8806C91.2027 25.4987 95.2861 26.9323 99.7555 26.913C99.8397 26.9148 99.9222 26.9148 100.005 26.9148C104.911 26.9148 107.896 24.8178 109.126 22.2524C107.906 27.3868 104.118 30.1945 97.8165 30.6121ZM109.577 19.9641C109.542 20.366 109.326 21.2363 109.319 21.2732C108.414 24.2195 105.306 26.8218 99.7538 26.7376C99.7274 26.7376 99.6994 26.7376 99.673 26.7376C95.2826 26.7376 91.2624 25.3215 88.3337 22.7472L92.0222 18.3392C92.8242 19.1113 94.4789 19.9904 96.281 20.5958C98.3868 21.303 100.263 21.489 101.428 21.1047C102.282 20.824 102.835 20.2607 102.895 19.4026C102.972 18.2831 101.907 17.711 98.6676 16.9652C93.6261 15.8141 89.4532 14.4401 89.4532 9.24245C89.4532 4.58177 93.247 1.45125 98.8939 1.45125C102.918 1.45125 106.192 2.49534 108.9 4.64494L105.595 9.32844C103.927 8.09483 99.6502 6.24705 97.4304 7.11391C96.7303 7.38766 96.2424 7.9018 96.174 8.67917C96.0793 9.78819 96.8847 10.555 100.512 11.1517C103.534 11.65 105.987 12.8345 107.606 14.5787C109.049 16.1317 109.749 18.0427 109.577 19.9641Z" fill="black"/>
<path d="M32.8424 13.6294C34.0233 13.6294 35.2008 13.2047 36.1238 12.3431L39.0367 9.62674L39.0385 9.62498C39.0385 9.62498 39.8299 8.75286 40.0457 8.35102C40.4405 7.63858 40.6652 6.82085 40.6652 5.95048C40.6652 3.21128 38.4366 0.980957 35.6956 0.980957C35.0411 0.980957 34.4164 1.10905 33.8426 1.34068C33.3021 1.5495 32.795 1.85659 32.3563 2.26721L29.3451 5.07485C27.4219 6.86823 27.3569 10.0602 29.2047 12.0413C30.1874 13.0959 31.5175 13.6294 32.8424 13.6294ZM35.7676 1.17573C37.4223 1.17573 40.4704 2.58658 40.4704 5.97505C40.4704 7.78774 39.4087 9.0266 39.0911 9.34421L39.0894 9.34597C38.2208 10.2146 37.0205 10.7515 35.6974 10.7515C33.0512 10.7515 30.8963 8.59844 30.8963 5.95048C30.8963 3.93249 32.6985 1.17573 35.7676 1.17573ZM29.4609 5.19943L31.6281 3.17969C31.142 3.94828 30.7279 4.97658 30.7279 5.95048C30.7279 8.68969 32.9564 10.92 35.6974 10.92C36.5397 10.92 37.3328 10.7094 38.0277 10.3374L36.008 12.2203C34.1514 13.9523 31.0929 13.8189 29.3293 11.9272C27.5447 10.0128 27.6044 6.9314 29.4609 5.19943ZM57.9216 14.7068H50.9516L48.0106 18.3374V18.4006C48.0106 19.1306 47.8983 19.8483 47.6772 20.5344C46.856 20.9801 45.9172 21.2398 44.9029 21.2591C41.7005 21.2135 39.235 18.7832 38.9367 15.5C38.9174 15.2841 38.9069 15.063 38.9069 14.8402V14.7226H38.9051V14.7086H31.9474L28.9941 18.3392V18.4024C28.9941 21.8294 30.3102 25.0074 32.702 27.35C35.1166 29.7154 38.4225 31.0192 42.0146 31.0192C48.4651 31.0192 53.117 27.9308 56.2388 21.5715C56.5511 20.8029 56.8354 20.087 57.0776 19.3886C57.4952 18.2988 57.7637 17.146 57.869 15.9509C57.883 15.8053 57.9234 15.0437 57.9234 14.8402V14.7226H57.9216V14.7068ZM57.6988 15.9562C57.5865 17.1284 57.3074 18.2076 56.9179 19.3342C56.2967 20.9486 55.3421 22.4173 54.0839 23.6509C51.7009 25.9848 48.4406 27.271 44.9029 27.271C41.3565 27.271 38.0909 25.9848 35.7079 23.6509C33.3653 21.3557 32.0685 18.2462 32.051 14.8893H38.7384C38.7402 15.1157 38.7524 15.3403 38.7735 15.5614C39.0929 18.9165 41.6197 21.396 44.9047 21.4416C45.94 21.4223 46.9086 21.1661 47.7843 20.6801L47.8211 20.6573C49.7689 19.5711 51.0429 17.4355 51.0657 14.8893H57.7532C57.7514 15.0841 57.711 15.8229 57.6988 15.9562ZM48.1791 18.4006L50.892 15.0507C50.8218 17.3916 49.6566 19.3535 47.8896 20.4116C48.0826 19.7641 48.1791 19.0885 48.1791 18.4006ZM56.0861 21.5013C52.9977 27.7922 48.3949 30.849 42.0146 30.849C38.4682 30.849 35.2025 29.5627 32.8195 27.2289C30.4611 24.9179 29.1626 21.7838 29.1626 18.4024V18.3989L31.886 15.0402C31.9404 18.3848 33.2477 21.4785 35.5886 23.7737C38.0032 26.1392 41.3092 27.443 44.9012 27.443C48.4844 27.443 51.7869 26.1409 54.2015 23.7737C54.9911 22.9999 55.6615 22.133 56.2107 21.196C56.1686 21.296 56.1282 21.3978 56.0861 21.5013ZM58.792 6.2681C58.7604 5.77851 58.4305 5.33105 57.8462 4.99764L52.3046 1.79693C51.6922 1.43896 51.0096 1.3635 50.5937 1.66357C50.062 2.04786 48.2651 3.85528 48.2651 3.85528C47.7685 4.41856 47.6843 4.75196 47.6843 5.28542V11.6693C47.6843 12.3817 47.9317 12.9169 48.3809 13.1766C48.5651 13.2837 48.774 13.3363 48.9986 13.3363C49.3144 13.3363 49.6601 13.231 50.0163 13.024L55.2403 10.004C55.4772 9.86714 55.7018 9.70395 55.9054 9.51795L58.0234 7.62454C58.4656 7.25428 58.6972 6.93491 58.7779 6.5471C58.8025 6.4348 58.792 6.28389 58.792 6.2681ZM58.6147 6.5085C58.6147 6.51201 58.613 6.51552 58.613 6.51903C58.5446 6.90683 58.248 7.26481 57.7619 7.54207L52.2203 10.7428C51.6658 11.0657 51.1447 11.1201 50.7534 10.8954C50.3585 10.6691 50.1409 10.1848 50.1409 9.53549V3.14986C50.1445 2.3567 50.4393 2.07419 50.4814 2.02681C50.7779 1.70744 51.0499 1.68638 51.3552 1.68638C51.6272 1.68638 51.9133 1.77587 52.2221 1.95661L57.7637 5.15732C58.2901 5.45739 58.5937 5.85573 58.6253 6.28214C58.6253 6.29969 58.6218 6.46639 58.6147 6.5085ZM55.7913 9.39335C55.5965 9.57059 55.3825 9.72676 55.1561 9.85837L49.9321 12.8783C49.3776 13.2012 48.8564 13.2556 48.4651 13.031C48.0703 12.8046 47.8527 12.3203 47.8527 11.671V5.28717C47.8527 4.80636 47.9054 4.52034 48.3844 3.9746L50.0848 2.39706C50.0111 2.61641 49.9725 2.86909 49.9725 3.15161V9.53549C49.9725 10.2479 50.2199 10.7831 50.6691 11.0428C50.8534 11.1499 51.0622 11.2025 51.2868 11.2025C51.6027 11.2025 51.9484 11.0972 52.3046 10.8902L57.3548 7.97373L55.7913 9.39335Z" fill="black"/>
</svg>
